<?xml version="1.0" encoding="UTF-8"?>
<svg width="500pt" version="1.1" xmlns="http://www.w3.org/2000/svg" height="500pt" viewBox="0 0 500 500" xmlns:xlink="http://www.w3.org/1999/xlink">
 <defs>
  <path id="GlCourierNewPS-BoldMT36" d="M3.50094 3.98922 C3.50094 3.98922 3.84766 4.03313 4.17969 4.18453 C4.17969 4.18453 4.25781 4.14062 4.32859 4.11875 C4.32859 4.11875 4.39938 4.09672 4.46781 4.09672 C4.46781 4.09672 4.69234 4.09672 4.83156 4.25047 C4.83156 4.25047 4.97078 4.40422 4.97078 4.76562 L4.97078 5.08781 C4.97078 5.08781 4.97078 5.44922 4.83156 5.60312 C4.83156 5.60312 4.69234 5.75687 4.47266 5.75687 C4.47266 5.75687 4.2725 5.75687 4.13328 5.625 C4.13328 5.625 3.99422 5.49313 3.96969 5.23922 C3.96969 5.23922 3.61813 4.96094 3.09078 4.96094 C3.09078 4.96094 2.53906 4.96094 2.28266 5.15875 C2.28266 5.15875 2.02641 5.35641 2.02641 5.59563 C2.02641 5.59563 2.02641 5.78125 2.18266 5.92766 C2.18266 5.92766 2.33891 6.07422 2.83688 6.17672 L3.50094 6.31828 C3.50094 6.31828 4.34078 6.48922 4.70703 6.83109 C4.70703 6.83109 5.18562 7.26562 5.18562 7.97844 C5.18562 7.97844 5.18562 8.60344 4.74859 9.08938 C4.74859 9.08938 4.31156 9.57516 3.50094 9.73141 L3.50094 10.5811 C3.50094 10.5811 3.50094 10.9423 3.36172 11.0961 C3.36172 11.0961 3.22266 11.25 2.99812 11.25 C2.99812 11.25 2.77828 11.25 2.63906 11.0961 C2.63906 11.0961 2.5 10.9423 2.5 10.5811 L2.5 9.73141 C2.5 9.73141 2.10938 9.64844 1.71875 9.47266 C1.71875 9.47266 1.50875 9.64844 1.32812 9.64844 C1.32812 9.64844 1.08891 9.64844 0.949688 9.49703 C0.949688 9.49703 0.810625 9.34563 0.810625 8.98438 L0.810625 8.35453 C0.810625 8.35453 0.810625 7.99313 0.949688 7.83938 C0.949688 7.83938 1.08891 7.68547 1.31344 7.68547 C1.31344 7.68547 1.49422 7.68547 1.61625 7.78313 C1.61625 7.78313 1.73828 7.88078 1.79203 8.08344 C1.79203 8.08344 1.84578 8.28609 1.94344 8.38859 C1.94344 8.38859 2.08984 8.54484 2.39016 8.64984 C2.39016 8.64984 2.69047 8.75484 3.00781 8.75484 C3.00781 8.75484 3.56453 8.75484 3.93562 8.46672 C3.93562 8.46672 4.18453 8.27641 4.18453 7.97359 C4.18453 7.97359 4.18453 7.72453 4.01859 7.56344 C4.01859 7.56344 3.8525 7.40719 3.32031 7.29984 L2.56844 7.14844 C2.56844 7.14844 1.7725 6.99219 1.40141 6.57719 C1.40141 6.57719 1.03031 6.16203 1.03031 5.58109 C1.03031 5.58109 1.03031 5.00484 1.43063 4.55563 C1.43063 4.55563 1.83109 4.10641 2.5 3.98922 L2.5 3.71578 C2.5 3.71578 2.5 3.35938 2.63906 3.20562 C2.63906 3.20562 2.77828 3.05172 3.00297 3.05172 C3.00297 3.05172 3.22266 3.05172 3.36172 3.20562 C3.36172 3.20562 3.50094 3.35938 3.50094 3.71578 L3.50094 3.98922 Z"/>
  <path id="GlStandardSymL63" d="M2.43 8.24 C2.44 7.62 2.6 7.17 2.98 6.7 C3.59 6.03 3.59 6.03 3.75 5.79 C4 5.42 4.12 5.04 4.12 4.64 C4.12 3.76 3.41 3.14 2.39 3.14 C1.46 3.14 0.7 3.76 0.7 4.54 C0.7 4.97 0.94 5.29 1.25 5.29 C1.49 5.29 1.68 5.11 1.68 4.88 C1.68 4.77 1.64 4.66 1.55 4.54 C1.38 4.3 1.36 4.27 1.36 4.13 C1.36 3.76 1.73 3.47 2.21 3.47 C2.81 3.47 3.17 3.93 3.17 4.68 C3.17 5.13 3.11 5.33 2.66 6.23 C2.29 6.98 2.23 7.25 2.21 8.24 L2.43 8.24 L2.43 8.24 Z M2.4 9.01 C2.08 9.01 1.83 9.26 1.83 9.57 C1.83 9.88 2.08 10.13 2.39 10.13 C2.7 10.13 2.95 9.88 2.95 9.57 C2.95 9.27 2.7 9.01 2.4 9.01 Z"/>
 </defs>
 <g id="Background">
  <path style="fill:none;stroke:#ffffff; stroke-width:16; stroke-linecap:butt; stroke-linejoin:miter; stroke-dasharray:none;" d="M0.945379 400 C141.353 400.877 140.945 400 140.945 400 C140.945 400 139.85 179.204 140.945 118.005 C141.353 88.005 121.805 96.4974 92.9454 60 L92.9454 0 L47.9454 0 C47.9454 0 48.1203 32.5877 47.9454 60 C20.3008 95.7455 0.945379 87.4749 0.945379 118.005 C0 165.67 0.945379 400 0.945379 400 L0.945379 400 Z" transform="translate(79.0546, 51.995)"/>
  <path style="fill:none;stroke:#ffffff; stroke-width:16; stroke-linecap:butt; stroke-linejoin:miter; stroke-dasharray:none;" d="M0 0 L90 0 L90 140 L0 140 L0 0 Z" transform="translate(249.36, 172.255) rotate(-45)"/>
  <g transform="translate(270.792, 184.491) rotate(-45)">
   <use style="fill:#ffffff;stroke:none;" xlink:href="#GlCourierNewPS-BoldMT36" transform="matrix(12.7 0 0 12.7 1 -37.7573)"/>
   <path style="fill:none; stroke:none;" d="M0 0 L108.271 0 L108.271 171.35 L0 171.35 L0 0 Z"/>
  </g>
  <path style="fill:none;stroke:#ffffff; stroke-width:7; stroke-linecap:butt; stroke-linejoin:miter; stroke-dasharray:none;" d="M116.837 66.1654 C116.085 66.1654 107.331 36.0902 75.4832 29.3233 C43.6356 22.5564 36.3854 24.0602 18.3403 19.5489 C0.295222 15.0376 0 0 0 0 " transform="translate(175, 84.5826)"/>
  <path style="fill:none;stroke:#ffffff; stroke-width:13; stroke-linecap:butt; stroke-linejoin:miter; stroke-dasharray:none;" d="M0 0 L139.61 0 L139.61 171.474 L0 171.474 L0 0 Z" transform="translate(80.3023, 195.026)"/>
  <g transform="translate(108, 224.192)">
   <use style="fill:#ffffff;stroke:none;" xlink:href="#GlStandardSymL63" transform="matrix(16.3 0 0 16.3 0 -50.182)"/>
   <path style="fill:none; stroke:none;" d="M0 0 L172.551 0 L172.551 186.808 L0 186.808 L0 0 Z"/>
  </g>
 </g>
</svg>
